<mxfile host="app.diagrams.net" agent="Mozilla/5.0 (Windows NT 10.0; Win64; x64; rv:132.0) Gecko/20100101 Firefox/132.0" version="24.9.1">
  <diagram name="Page-1" id="e7e014a7-5840-1c2e-5031-d8a46d1fe8dd">
    <mxGraphModel dx="2856" dy="911" grid="1" gridSize="10" guides="1" tooltips="1" connect="1" arrows="1" fold="1" page="1" pageScale="1" pageWidth="1169" pageHeight="826" background="none" math="0" shadow="0">
      <root>
        <mxCell id="0" />
        <mxCell id="1" parent="0" />
        <mxCell id="2" value="Thread 1" style="swimlane;whiteSpace=wrap" parent="1" vertex="1">
          <mxGeometry x="670" y="70" width="280" height="570" as="geometry">
            <mxRectangle x="164.5" y="128" width="90" height="30" as="alternateBounds" />
          </mxGeometry>
        </mxCell>
        <mxCell id="5" value="" style="ellipse;shape=startState;fillColor=#000000;strokeColor=#ff0000;" parent="2" vertex="1">
          <mxGeometry x="100" y="40" width="30" height="30" as="geometry" />
        </mxCell>
        <mxCell id="6" value="" style="edgeStyle=elbowEdgeStyle;elbow=horizontal;verticalAlign=bottom;endArrow=open;endSize=8;strokeColor=#FF0000;endFill=1;rounded=0" parent="2" source="5" target="7" edge="1">
          <mxGeometry x="100" y="40" as="geometry">
            <mxPoint x="115" y="110" as="targetPoint" />
          </mxGeometry>
        </mxCell>
        <mxCell id="7" value="idle" style="" parent="2" vertex="1">
          <mxGeometry x="60" y="110" width="110" height="50" as="geometry" />
        </mxCell>
        <mxCell id="8" value="user action" style="" parent="2" vertex="1">
          <mxGeometry x="60" y="220" width="110" height="50" as="geometry" />
        </mxCell>
        <mxCell id="9" value="" style="endArrow=open;strokeColor=#FF0000;endFill=1;rounded=0" parent="2" source="7" target="8" edge="1">
          <mxGeometry relative="1" as="geometry" />
        </mxCell>
        <mxCell id="10" value="post command" style="" parent="2" vertex="1">
          <mxGeometry x="60" y="325" width="110" height="50" as="geometry" />
        </mxCell>
        <mxCell id="11" value="" style="endArrow=open;strokeColor=#FF0000;endFill=1;rounded=0" parent="2" source="8" target="10" edge="1">
          <mxGeometry relative="1" as="geometry" />
        </mxCell>
        <mxCell id="12" value="" style="edgeStyle=elbowEdgeStyle;elbow=horizontal;strokeColor=#FF0000;endArrow=open;endFill=1;rounded=0" parent="2" source="10" target="7" edge="1">
          <mxGeometry width="100" height="100" relative="1" as="geometry">
            <mxPoint x="160" y="290" as="sourcePoint" />
            <mxPoint x="260" y="190" as="targetPoint" />
            <Array as="points">
              <mxPoint x="30" y="250" />
            </Array>
          </mxGeometry>
        </mxCell>
        <mxCell id="3" value="Thread 2" style="swimlane;whiteSpace=wrap" parent="1" vertex="1">
          <mxGeometry x="950" y="70" width="280" height="570" as="geometry">
            <mxRectangle x="444.5" y="128" width="90" height="30" as="alternateBounds" />
          </mxGeometry>
        </mxCell>
        <mxCell id="13" value="" style="ellipse;shape=startState;fillColor=#000000;strokeColor=#ff0000;" parent="3" vertex="1">
          <mxGeometry x="60" y="40" width="30" height="30" as="geometry" />
        </mxCell>
        <mxCell id="14" value="" style="edgeStyle=elbowEdgeStyle;elbow=horizontal;verticalAlign=bottom;endArrow=open;endSize=8;strokeColor=#FF0000;endFill=1;rounded=0" parent="3" source="13" target="15" edge="1">
          <mxGeometry x="40" y="20" as="geometry">
            <mxPoint x="55" y="90" as="targetPoint" />
          </mxGeometry>
        </mxCell>
        <mxCell id="15" value="idle" style="" parent="3" vertex="1">
          <mxGeometry x="20" y="110" width="110" height="50" as="geometry" />
        </mxCell>
        <mxCell id="16" value="check for &#xa;new commands" style="" parent="3" vertex="1">
          <mxGeometry x="20" y="220" width="110" height="50" as="geometry" />
        </mxCell>
        <mxCell id="17" value="" style="endArrow=open;strokeColor=#FF0000;endFill=1;rounded=0" parent="3" source="15" target="16" edge="1">
          <mxGeometry relative="1" as="geometry" />
        </mxCell>
        <mxCell id="18" value="command queue" style="" parent="3" vertex="1">
          <mxGeometry x="20" y="325" width="110" height="50" as="geometry" />
        </mxCell>
        <mxCell id="19" value="" style="endArrow=open;strokeColor=#FF0000;endFill=1;rounded=0" parent="3" source="16" target="18" edge="1">
          <mxGeometry relative="1" as="geometry" />
        </mxCell>
        <mxCell id="21" value="queue empty" style="rhombus;fillColor=#ffffc0;strokeColor=#ff0000;" parent="3" vertex="1">
          <mxGeometry x="150" y="225" width="80" height="40" as="geometry" />
        </mxCell>
        <mxCell id="22" value="yes" style="edgeStyle=elbowEdgeStyle;elbow=horizontal;align=left;verticalAlign=bottom;endArrow=open;endSize=8;strokeColor=#FF0000;exitX=0.5;exitY=0;endFill=1;rounded=0;entryX=0.75;entryY=0.5;entryPerimeter=0" parent="3" source="21" target="25" edge="1">
          <mxGeometry x="-1" relative="1" as="geometry">
            <mxPoint x="160" y="150" as="targetPoint" />
            <Array as="points">
              <mxPoint x="190" y="180" />
            </Array>
          </mxGeometry>
        </mxCell>
        <mxCell id="23" value="no" style="edgeStyle=elbowEdgeStyle;elbow=horizontal;align=left;verticalAlign=top;endArrow=open;endSize=8;strokeColor=#FF0000;endFill=1;rounded=0" parent="3" source="21" target="30" edge="1">
          <mxGeometry x="-1" relative="1" as="geometry">
            <mxPoint x="190" y="305" as="targetPoint" />
          </mxGeometry>
        </mxCell>
        <mxCell id="24" value="" style="endArrow=open;strokeColor=#FF0000;endFill=1;rounded=0" parent="3" source="16" target="21" edge="1">
          <mxGeometry relative="1" as="geometry" />
        </mxCell>
        <mxCell id="25" value="" style="shape=line;strokeWidth=6;strokeColor=#ff0000;rotation=90" parent="3" vertex="1">
          <mxGeometry x="130" y="127.5" width="50" height="15" as="geometry" />
        </mxCell>
        <mxCell id="26" value="" style="edgeStyle=elbowEdgeStyle;elbow=horizontal;verticalAlign=bottom;endArrow=open;endSize=8;strokeColor=#FF0000;endFill=1;rounded=0" parent="3" source="25" target="15" edge="1">
          <mxGeometry x="130" y="90" as="geometry">
            <mxPoint x="230" y="140" as="targetPoint" />
          </mxGeometry>
        </mxCell>
        <mxCell id="30" value="dispatch&#xa;command&#xa;worker thread" style="" parent="3" vertex="1">
          <mxGeometry x="140" y="325" width="110" height="50" as="geometry" />
        </mxCell>
        <mxCell id="31" value="critical&#xa;section" style="shape=note;whiteSpace=wrap;size=17" parent="3" vertex="1">
          <mxGeometry x="105" y="490" width="100" height="50" as="geometry" />
        </mxCell>
        <mxCell id="32" value="" style="endArrow=none;strokeColor=#FF0000;endFill=0;rounded=0;dashed=1" parent="3" source="18" target="31" edge="1">
          <mxGeometry relative="1" as="geometry" />
        </mxCell>
        <mxCell id="34" value="" style="whiteSpace=wrap;strokeColor=#FF0000;fillColor=#FF0000" parent="3" vertex="1">
          <mxGeometry x="245" y="395" width="5" height="45" as="geometry" />
        </mxCell>
        <mxCell id="41" value="" style="edgeStyle=elbowEdgeStyle;elbow=horizontal;entryX=0;entryY=0.5;strokeColor=#FF0000;endArrow=open;endFill=1;rounded=0" parent="3" source="30" target="34" edge="1">
          <mxGeometry width="100" height="100" relative="1" as="geometry">
            <mxPoint x="60" y="480" as="sourcePoint" />
            <mxPoint x="160" y="380" as="targetPoint" />
            <Array as="points">
              <mxPoint x="195" y="400" />
            </Array>
          </mxGeometry>
        </mxCell>
        <mxCell id="4" value="Thread 3" style="swimlane;whiteSpace=wrap" parent="1" vertex="1">
          <mxGeometry x="1230" y="70" width="280" height="570" as="geometry" />
        </mxCell>
        <mxCell id="33" value="process&#xa;command" style="" parent="4" vertex="1">
          <mxGeometry x="90" y="405" width="110" height="50" as="geometry" />
        </mxCell>
        <mxCell id="35" value="" style="edgeStyle=elbowEdgeStyle;elbow=horizontal;strokeColor=#FF0000;endArrow=open;endFill=1;rounded=0;entryX=0.25;entryY=0.5;entryPerimeter=0" parent="4" target="25" edge="1">
          <mxGeometry width="100" height="100" relative="1" as="geometry">
            <mxPoint x="-30" y="410" as="sourcePoint" />
            <mxPoint x="-120" y="120" as="targetPoint" />
            <Array as="points">
              <mxPoint x="-10" y="135" />
            </Array>
          </mxGeometry>
        </mxCell>
        <mxCell id="37" value="" style="edgeStyle=none;strokeColor=#FF0000;endArrow=open;endFill=1;rounded=0" parent="4" target="33" edge="1">
          <mxGeometry width="100" height="100" relative="1" as="geometry">
            <mxPoint x="-30" y="429.5" as="sourcePoint" />
            <mxPoint x="90" y="429.5" as="targetPoint" />
          </mxGeometry>
        </mxCell>
        <mxCell id="38" value="" style="ellipse;shape=endState;fillColor=#000000;strokeColor=#ff0000" parent="4" vertex="1">
          <mxGeometry x="130" y="500" width="30" height="30" as="geometry" />
        </mxCell>
        <mxCell id="39" value="" style="endArrow=open;strokeColor=#FF0000;endFill=1;rounded=0" parent="4" source="33" target="38" edge="1">
          <mxGeometry relative="1" as="geometry" />
        </mxCell>
        <mxCell id="20" value="" style="endArrow=open;strokeColor=#FF0000;endFill=1;rounded=0" parent="1" source="10" target="18" edge="1">
          <mxGeometry relative="1" as="geometry" />
        </mxCell>
        <mxCell id="hfIujMzKy7mJzXb3m5Cn-44" value="Aspirante" style="swimlane;whiteSpace=wrap;html=1;" vertex="1" parent="1">
          <mxGeometry x="-1070" y="170" width="540" height="790" as="geometry" />
        </mxCell>
        <mxCell id="hfIujMzKy7mJzXb3m5Cn-59" style="edgeStyle=orthogonalEdgeStyle;rounded=0;orthogonalLoop=1;jettySize=auto;html=1;entryX=0.5;entryY=0;entryDx=0;entryDy=0;" edge="1" parent="hfIujMzKy7mJzXb3m5Cn-44" source="hfIujMzKy7mJzXb3m5Cn-46" target="hfIujMzKy7mJzXb3m5Cn-49">
          <mxGeometry relative="1" as="geometry" />
        </mxCell>
        <mxCell id="hfIujMzKy7mJzXb3m5Cn-46" value="Selecciona un Opción de Titulación" style="rounded=1;whiteSpace=wrap;html=1;" vertex="1" parent="hfIujMzKy7mJzXb3m5Cn-44">
          <mxGeometry x="210" y="120" width="120" height="60" as="geometry" />
        </mxCell>
        <mxCell id="hfIujMzKy7mJzXb3m5Cn-47" value="" style="ellipse;html=1;shape=startState;fillColor=#000000;strokeColor=#ff0000;" vertex="1" parent="hfIujMzKy7mJzXb3m5Cn-44">
          <mxGeometry x="255" y="42.5" width="30" height="30" as="geometry" />
        </mxCell>
        <mxCell id="hfIujMzKy7mJzXb3m5Cn-48" value="" style="edgeStyle=orthogonalEdgeStyle;html=1;verticalAlign=bottom;endArrow=open;endSize=8;strokeColor=#ff0000;rounded=0;" edge="1" source="hfIujMzKy7mJzXb3m5Cn-47" parent="hfIujMzKy7mJzXb3m5Cn-44" target="hfIujMzKy7mJzXb3m5Cn-46">
          <mxGeometry relative="1" as="geometry">
            <mxPoint x="470" y="220" as="targetPoint" />
          </mxGeometry>
        </mxCell>
        <mxCell id="hfIujMzKy7mJzXb3m5Cn-60" style="edgeStyle=orthogonalEdgeStyle;rounded=0;orthogonalLoop=1;jettySize=auto;html=1;entryX=0.5;entryY=0;entryDx=0;entryDy=0;" edge="1" parent="hfIujMzKy7mJzXb3m5Cn-44" source="hfIujMzKy7mJzXb3m5Cn-49" target="hfIujMzKy7mJzXb3m5Cn-50">
          <mxGeometry relative="1" as="geometry" />
        </mxCell>
        <mxCell id="hfIujMzKy7mJzXb3m5Cn-49" value="Consulta requisitos específicos" style="rounded=1;whiteSpace=wrap;html=1;" vertex="1" parent="hfIujMzKy7mJzXb3m5Cn-44">
          <mxGeometry x="205" y="250" width="130" height="50" as="geometry" />
        </mxCell>
        <mxCell id="hfIujMzKy7mJzXb3m5Cn-50" value="Sube documentos" style="rounded=1;whiteSpace=wrap;html=1;" vertex="1" parent="hfIujMzKy7mJzXb3m5Cn-44">
          <mxGeometry x="205" y="370" width="120" height="60" as="geometry" />
        </mxCell>
        <mxCell id="hfIujMzKy7mJzXb3m5Cn-56" value="recibir y corrige obssrvaciones" style="rounded=1;whiteSpace=wrap;html=1;" vertex="1" parent="hfIujMzKy7mJzXb3m5Cn-44">
          <mxGeometry x="205" y="570" width="120" height="60" as="geometry" />
        </mxCell>
        <mxCell id="hfIujMzKy7mJzXb3m5Cn-64" style="edgeStyle=orthogonalEdgeStyle;rounded=0;orthogonalLoop=1;jettySize=auto;html=1;exitX=0.5;exitY=1;exitDx=0;exitDy=0;" edge="1" parent="hfIujMzKy7mJzXb3m5Cn-44" source="hfIujMzKy7mJzXb3m5Cn-56" target="hfIujMzKy7mJzXb3m5Cn-67">
          <mxGeometry relative="1" as="geometry" />
        </mxCell>
        <mxCell id="hfIujMzKy7mJzXb3m5Cn-68" style="edgeStyle=orthogonalEdgeStyle;rounded=0;orthogonalLoop=1;jettySize=auto;html=1;entryX=0;entryY=0.5;entryDx=0;entryDy=0;" edge="1" parent="hfIujMzKy7mJzXb3m5Cn-44" source="hfIujMzKy7mJzXb3m5Cn-67" target="hfIujMzKy7mJzXb3m5Cn-50">
          <mxGeometry relative="1" as="geometry">
            <Array as="points">
              <mxPoint x="265" y="780" />
              <mxPoint x="150" y="780" />
              <mxPoint x="150" y="400" />
            </Array>
          </mxGeometry>
        </mxCell>
        <mxCell id="hfIujMzKy7mJzXb3m5Cn-67" value="Reenviar documento" style="rounded=1;whiteSpace=wrap;html=1;" vertex="1" parent="hfIujMzKy7mJzXb3m5Cn-44">
          <mxGeometry x="205" y="690" width="120" height="60" as="geometry" />
        </mxCell>
        <mxCell id="hfIujMzKy7mJzXb3m5Cn-45" value="Personal Grado Académico" style="swimlane;whiteSpace=wrap;html=1;" vertex="1" parent="1">
          <mxGeometry x="-530" y="170" width="580" height="790" as="geometry" />
        </mxCell>
        <mxCell id="hfIujMzKy7mJzXb3m5Cn-62" style="edgeStyle=orthogonalEdgeStyle;rounded=0;orthogonalLoop=1;jettySize=auto;html=1;entryX=0.5;entryY=0;entryDx=0;entryDy=0;" edge="1" parent="hfIujMzKy7mJzXb3m5Cn-45" source="hfIujMzKy7mJzXb3m5Cn-51" target="hfIujMzKy7mJzXb3m5Cn-53">
          <mxGeometry relative="1" as="geometry" />
        </mxCell>
        <mxCell id="hfIujMzKy7mJzXb3m5Cn-51" value="Revisa documentos" style="rounded=1;whiteSpace=wrap;html=1;" vertex="1" parent="hfIujMzKy7mJzXb3m5Cn-45">
          <mxGeometry x="170" y="370" width="120" height="60" as="geometry" />
        </mxCell>
        <mxCell id="hfIujMzKy7mJzXb3m5Cn-53" value="errores" style="rhombus;whiteSpace=wrap;html=1;fontColor=#000000;fillColor=#ffffc0;strokeColor=#ff0000;" vertex="1" parent="hfIujMzKy7mJzXb3m5Cn-45">
          <mxGeometry x="190" y="480" width="80" height="40" as="geometry" />
        </mxCell>
        <mxCell id="hfIujMzKy7mJzXb3m5Cn-54" value="no" style="edgeStyle=orthogonalEdgeStyle;html=1;align=left;verticalAlign=bottom;endArrow=open;endSize=8;strokeColor=#ff0000;rounded=0;exitX=1;exitY=0.5;exitDx=0;exitDy=0;entryX=0;entryY=0.5;entryDx=0;entryDy=0;" edge="1" source="hfIujMzKy7mJzXb3m5Cn-53" parent="hfIujMzKy7mJzXb3m5Cn-45" target="hfIujMzKy7mJzXb3m5Cn-57">
          <mxGeometry x="-1" relative="1" as="geometry">
            <mxPoint x="540" y="500" as="targetPoint" />
          </mxGeometry>
        </mxCell>
        <mxCell id="hfIujMzKy7mJzXb3m5Cn-55" value="yes" style="edgeStyle=orthogonalEdgeStyle;html=1;align=left;verticalAlign=top;endArrow=open;endSize=8;strokeColor=#ff0000;rounded=0;exitX=0.5;exitY=1;exitDx=0;exitDy=0;" edge="1" source="hfIujMzKy7mJzXb3m5Cn-53" parent="hfIujMzKy7mJzXb3m5Cn-45" target="hfIujMzKy7mJzXb3m5Cn-52">
          <mxGeometry x="-1" relative="1" as="geometry">
            <mxPoint x="360.12" y="610" as="targetPoint" />
            <mxPoint x="310.0023529411761" y="530.0588235294119" as="sourcePoint" />
          </mxGeometry>
        </mxCell>
        <mxCell id="hfIujMzKy7mJzXb3m5Cn-52" value="enviar observaciones aspirante" style="rounded=1;whiteSpace=wrap;html=1;" vertex="1" parent="hfIujMzKy7mJzXb3m5Cn-45">
          <mxGeometry x="170" y="570" width="120" height="60" as="geometry" />
        </mxCell>
        <mxCell id="hfIujMzKy7mJzXb3m5Cn-66" style="edgeStyle=orthogonalEdgeStyle;rounded=0;orthogonalLoop=1;jettySize=auto;html=1;" edge="1" parent="hfIujMzKy7mJzXb3m5Cn-45" source="hfIujMzKy7mJzXb3m5Cn-57" target="hfIujMzKy7mJzXb3m5Cn-65">
          <mxGeometry relative="1" as="geometry" />
        </mxCell>
        <mxCell id="hfIujMzKy7mJzXb3m5Cn-57" value="Documento arobado" style="rounded=1;whiteSpace=wrap;html=1;" vertex="1" parent="hfIujMzKy7mJzXb3m5Cn-45">
          <mxGeometry x="370" y="470" width="120" height="60" as="geometry" />
        </mxCell>
        <mxCell id="hfIujMzKy7mJzXb3m5Cn-65" value="" style="ellipse;html=1;shape=endState;fillColor=#000000;strokeColor=#ff0000;" vertex="1" parent="hfIujMzKy7mJzXb3m5Cn-45">
          <mxGeometry x="415" y="590" width="30" height="30" as="geometry" />
        </mxCell>
        <mxCell id="hfIujMzKy7mJzXb3m5Cn-61" style="edgeStyle=orthogonalEdgeStyle;rounded=0;orthogonalLoop=1;jettySize=auto;html=1;entryX=0;entryY=0.5;entryDx=0;entryDy=0;" edge="1" parent="1" source="hfIujMzKy7mJzXb3m5Cn-50" target="hfIujMzKy7mJzXb3m5Cn-51">
          <mxGeometry relative="1" as="geometry" />
        </mxCell>
        <mxCell id="hfIujMzKy7mJzXb3m5Cn-63" style="edgeStyle=orthogonalEdgeStyle;rounded=0;orthogonalLoop=1;jettySize=auto;html=1;entryX=1;entryY=0.5;entryDx=0;entryDy=0;" edge="1" parent="1" source="hfIujMzKy7mJzXb3m5Cn-52" target="hfIujMzKy7mJzXb3m5Cn-56">
          <mxGeometry relative="1" as="geometry" />
        </mxCell>
      </root>
    </mxGraphModel>
  </diagram>
</mxfile>
